# xmcd
# Track frame offsets:
# 150
# 15856
# 32193
# 50977
# 68468
# 86170
# 100605
#
# Disc length: 1519 seconds
# Revision: 0
# Processed by: cddbd v1.5.2PL0 Copyright (c) Steve Scherf et al.
# Submitted via: VisiTrax 2.10.3.257 - For more info visit www.synapsa.com
#
DISCID=4e05ed07
DTITLE=Various Srtists - Get Country 2009
DYEAR=2009
DGENRE=
TTITLE0=Mellencamp, John - My sweet love
TTITLE1=Parton, Dolly - Better get to livin
TTITLE2=Bingham, Ryan - Bread and water
TTITLE3=Crow, Sheryl - Now that you're gone
TTITLE4=Hull, Sierra - Secrets
TTITLE5=Baylin, Jessie - See how I run
TTITLE6=Dan Tyminski - Wheels
EXTD=
EXTT0=
EXTT1=
EXTT2=
EXTT3=
EXTT4=
EXTT5=
EXTT6=
PLAYORDER=
